{"glyphs":{":":{"x_min":0,"x_max":162,"ha":162,"o":"m 123 168 l 123 129 q 123 113 121 111 q 120 110 118 110 l 46 110 q 43 110 42 111 q 41 112 41 129 l 41 168 q 41 184 42 185 q 44 187 61 187 l 103 187 q 119 187 121 185 q 123 183 123 168 z m 123 288 l 123 249 q 123 233 121 231 q 120 230 103 230 l 61 230 q 43 230 42 231 q 41 232 41 249 l 41 288 q 41 304 42 305 q 44 307 46 307 l 118 307 q 119 307 121 305 q 123 303 123 288 z"},"$":{"x_min":0,"x_max":467,"ha":467,"o":"m 272 468 q 272 463 294 462 q 366 458 417 424 q 424 418 414 403 q 384 360 384 360 q 372 344 370 344 q 368 344 364 348 q 325 387 249 387 q 199 387 170 369 q 142 352 142 328 q 142 290 249 271 l 250 271 l 271 267 q 358 247 393 218 q 427 188 427 140 q 427 109 417 82 q 406 55 375 30 q 343 6 292 2 q 278 0 275 -1 q 272 -3 272 -10 l 272 -22 q 272 -29 270 -32 q 268 -34 267 -34 l 200 -34 q 199 -34 197 -32 q 195 -30 195 -22 l 195 -8 q 195 -1 191 2 q 188 5 176 6 q 140 11 108 26 q 76 42 64 53 q 52 64 45 72 q 40 78 49 91 q 49 92 57 103 q 65 113 73 124 l 81 135 q 93 152 95 152 q 96 152 102 146 q 112 135 128 122 q 144 109 180 93 q 217 77 254 77 q 293 77 319 92 q 345 107 345 135 q 345 143 343 149 q 341 155 336 161 q 331 166 327 170 q 322 174 314 177 q 306 181 300 183 q 295 185 285 187 q 274 188 269 189 q 264 190 253 192 q 243 193 239 194 q 220 198 219 198 l 218 198 q 136 217 98 254 q 60 292 60 335 q 60 374 89 411 q 118 447 178 457 q 189 459 192 461 q 195 464 195 471 l 195 484 q 195 496 200 496 l 267 496 q 272 496 272 491 z"},"?":{"x_min":0,"x_max":354,"ha":354,"o":"m 201 48 l 201 9 q 201 -7 200 -8 q 198 -10 181 -10 l 139 -10 q 123 -10 121 -8 q 119 -6 119 -5 l 119 62 q 119 63 121 65 q 123 67 124 67 l 196 67 q 198 67 200 65 q 201 64 201 48 z m 178 100 l 139 100 q 127 100 124 102 q 120 104 120 113 q 120 115 120 126 q 119 137 119 144 q 119 182 132 201 q 138 211 146 218 q 155 226 173 235 q 190 244 195 247 q 234 271 234 297 q 234 303 231 310 q 219 343 177 343 q 155 343 142 331 q 129 319 126 310 q 124 300 124 291 q 124 281 101 281 l 41 281 q 41 333 78 371 q 115 409 182 409 q 242 409 278 378 q 313 347 313 296 q 313 271 303 252 q 293 233 283 226 q 273 218 256 207 q 208 177 201 164 q 196 154 196 139 q 196 134 197 124 q 197 113 197 110 q 197 103 195 101 q 194 100 178 100 z"},"<":{"x_min":0,"x_max":484,"ha":484,"o":"m 41 192 q 42 237 42 238 q 42 249 47 253 q 53 257 79 267 q 80 268 234 326 q 388 385 390 386 q 440 404 441 404 l 442 404 q 444 402 444 382 l 444 337 q 444 325 437 320 q 429 314 394 302 q 323 277 207 232 q 162 216 162 212 q 162 209 212 187 q 213 187 264 165 q 314 143 365 121 l 415 99 q 444 87 444 83 l 444 4 q 444 2 442 0 l 441 0 q 438 0 390 21 q 388 22 233 91 q 78 160 77 160 q 52 171 46 176 q 41 182 41 192 z"},"'":{"x_min":0,"x_max":162,"ha":162,"o":"m 123 394 l 123 320 q 123 303 120 298 q 116 294 103 294 l 61 294 q 41 294 41 299 l 41 414 q 41 419 61 419 l 103 419 q 116 419 120 415 q 123 411 123 394 z"},"=":{"x_min":0,"x_max":452,"ha":452,"o":"m 413 168 l 413 129 q 413 114 411 112 q 409 110 366 110 l 87 110 q 44 110 42 112 q 41 113 41 129 l 41 168 q 41 185 42 186 q 43 187 46 187 l 408 187 q 410 187 411 186 q 413 184 413 168 z m 413 318 l 413 279 q 413 264 411 262 q 409 260 408 260 l 46 260 q 44 260 42 262 q 41 263 41 265 l 41 332 q 41 335 42 336 q 43 337 46 337 l 408 337 q 410 337 411 336 q 413 334 413 318 z"},"a":{"x_min":0,"x_max":418,"ha":418,"o":"m 302 19 q 263 -9 206 -9 q 125 -9 72 44 q 20 97 20 178 q 20 261 74 314 q 129 367 207 367 q 263 367 302 340 q 308 335 310 337 q 311 338 311 343 l 311 348 q 311 353 313 355 q 314 356 316 356 l 383 356 q 386 356 387 355 q 388 354 388 351 l 388 1 q 388 -1 387 -2 q 385 -4 369 -4 l 330 -4 q 315 -4 313 -2 q 311 1 311 6 l 311 15 q 311 21 310 22 q 309 23 302 19 z m 308 218 q 299 247 284 265 q 256 301 208 301 q 163 301 132 264 q 102 227 102 180 q 102 136 133 96 q 163 58 208 58 q 253 58 283 95 q 300 113 308 142 q 311 153 311 173 l 311 191 q 311 206 308 218 z"},"L":{"x_min":0,"x_max":376,"ha":376,"o":"m 31 51 l 31 442 q 31 494 32 495 q 33 496 50 496 l 88 496 q 105 496 106 495 q 108 493 108 491 l 108 68 q 108 63 113 63 l 341 63 q 346 63 346 57 l 346 1 q 346 -4 304 -4 l 73 -4 q 34 -4 32 -2 q 31 -1 31 51 z"},"3":{"x_min":0,"x_max":425,"ha":425,"o":"m 156 279 l 228 279 q 260 279 277 296 q 295 313 295 341 q 295 371 273 389 q 251 407 217 407 q 184 407 153 392 q 123 377 107 356 q 101 350 100 350 q 100 350 86 363 l 42 407 l 41 408 l 41 407 l 40 408 l 41 408 q 61 431 107 452 q 153 473 213 473 q 290 473 333 435 q 377 396 377 338 q 377 287 349 256 q 345 252 345 249 q 345 246 351 242 q 400 206 400 139 q 400 71 345 32 q 290 -8 202 -8 q 138 -8 94 12 q 51 31 32 52 q 26 58 27 62 q 27 65 36 74 q 70 107 70 107 q 83 120 85 120 q 87 120 92 114 q 128 58 214 58 q 268 58 293 81 q 318 104 318 137 q 318 172 293 192 q 268 212 232 212 l 230 212 l 156 212 q 156 217 151 217 l 151 261 q 151 279 156 279 z"},";":{"x_min":0,"x_max":164,"ha":164,"o":"m 75 110 l 57 110 q 46 110 45 111 q 43 113 43 129 l 43 168 q 43 183 45 185 q 47 187 63 187 l 105 187 q 121 187 123 185 q 125 183 125 182 l 125 110 l 125 109 q 124 77 106 56 q 87 32 51 32 l 48 32 q 43 32 43 44 l 43 58 q 43 67 44 68 q 46 70 49 70 q 49 70 51 70 q 53 69 54 69 q 69 69 80 80 q 88 90 89 101 q 89 107 88 108 q 86 110 75 110 z m 123 288 l 123 249 q 123 233 121 231 q 120 230 103 230 l 61 230 q 43 230 42 231 q 41 232 41 235 l 41 302 q 41 304 42 305 q 44 307 61 307 l 103 307 q 119 307 121 305 q 123 303 123 288 z"},"J":{"x_min":0,"x_max":267,"ha":267,"o":"m 26 39 q 26 53 28 55 q 29 56 32 56 l 36 56 l 78 57 l 78 56 q 154 56 164 146 q 165 153 165 197 l 165 455 q 165 484 168 491 q 171 497 184 497 l 223 497 q 238 497 240 495 q 242 493 242 467 l 242 455 q 242 455 242 392 q 241 328 241 260 q 240 191 240 180 q 240 146 239 137 q 231 69 190 30 q 149 -9 79 -9 l 78 -9 l 78 -10 l 36 -10 l 36 -9 l 35 -9 l 32 -9 q 26 -9 26 8 z"},"V":{"x_min":0,"x_max":450,"ha":450,"o":"m 422 436 q 421 434 354 237 q 286 40 286 39 q 276 9 271 2 q 266 -4 253 -4 l 199 -4 q 187 -4 181 2 q 176 9 166 39 q 166 40 98 237 q 30 434 29 436 q 11 492 11 493 q 11 497 32 497 l 73 497 q 84 497 88 492 q 93 486 102 460 q 103 459 153 312 q 203 165 205 160 q 223 107 226 107 q 229 107 246 160 q 248 165 298 312 q 349 459 350 460 q 358 486 363 492 q 367 497 378 497 l 419 497 q 441 497 441 493 q 441 492 440 488 q 438 483 433 469 q 428 454 422 436 z"},"\"":{"x_min":0,"x_max":267,"ha":267,"o":"m 226 394 l 226 320 q 226 294 221 294 l 150 294 q 144 294 144 299 l 144 414 q 144 419 164 419 l 206 419 q 220 419 223 415 q 226 411 226 394 z m 123 394 l 123 320 q 123 303 120 298 q 116 294 103 294 l 60 294 q 47 294 44 298 q 41 303 41 320 l 41 394 q 41 419 46 419 l 117 419 q 123 419 123 394 z"},"7":{"x_min":0,"x_max":372,"ha":372,"o":"m 255 390 l 31 390 q 29 390 27 392 q 26 393 26 409 l 26 448 q 26 464 27 465 q 29 467 69 467 l 305 467 q 345 467 347 465 q 348 464 348 447 l 348 403 q 347 391 347 391 q 347 390 346 390 l 345 390 l 345 389 q 346 389 346 388 q 346 382 332 354 q 332 354 171 31 q 159 6 154 1 q 149 -4 139 -4 l 95 -4 q 72 -4 72 -1 q 72 4 95 50 q 96 53 237 336 q 260 382 260 387 q 260 390 255 390 z"},"S":{"x_min":0,"x_max":451,"ha":451,"o":"m 200 207 q 113 224 71 266 q 28 309 28 355 q 28 378 39 401 q 49 425 70 448 q 92 471 133 485 q 174 500 229 500 q 356 500 410 442 q 420 432 408 417 q 408 417 400 407 q 393 396 385 386 q 377 375 376 374 q 364 359 362 359 q 359 359 355 366 q 349 378 336 391 q 324 403 294 418 q 264 434 228 434 q 178 434 144 410 q 110 387 110 357 q 110 325 152 300 q 194 275 234 270 l 256 267 q 344 250 385 211 q 427 172 427 125 q 427 103 417 82 q 408 61 388 39 q 367 18 325 4 q 282 -9 224 -9 q 163 -9 115 7 q 66 22 51 34 q 36 45 26 56 q 21 62 32 76 q 32 76 49 98 q 65 120 66 121 q 77 136 79 136 q 81 136 86 130 q 96 118 110 104 q 125 91 160 74 q 195 58 232 58 q 277 58 311 78 q 345 99 345 130 q 345 186 223 204 z"},"}":{"x_min":0,"x_max":283,"ha":283,"o":"m 232 194 q 212 194 189 181 q 174 171 174 135 q 174 80 153 48 q 118 -6 54 -8 q 45 -8 43 -6 q 41 -4 41 11 l 41 52 q 41 69 51 69 q 83 71 97 109 q 108 143 108 171 q 108 196 113 208 q 118 221 133 235 l 134 235 l 133 235 l 133 236 q 108 261 108 319 q 108 351 97 384 q 83 421 51 423 q 41 423 41 443 l 41 483 q 41 497 43 499 q 44 500 54 500 q 119 498 146 455 q 174 412 174 335 q 174 295 191 284 q 211 272 234 272 q 244 271 244 253 l 244 212 q 244 194 232 194 z"},"Z":{"x_min":0,"x_max":440,"ha":440,"o":"m 396 409 q 183 124 171 106 q 142 67 142 65 q 142 63 145 63 l 406 63 q 411 63 411 57 l 411 1 q 411 0 409 -2 q 407 -4 406 -4 l 36 -4 q 35 -4 33 -2 q 31 0 31 15 l 31 52 q 31 63 46 83 q 260 368 271 386 q 300 424 300 427 q 300 429 297 429 l 36 429 q 31 429 31 435 l 31 491 q 31 493 33 495 q 34 496 36 496 l 406 496 q 408 496 409 495 q 411 493 411 491 l 411 431 q 411 429 396 409 z"},"x":{"x_min":0,"x_max":358,"ha":358,"o":"m 343 356 q 347 356 347 352 q 347 349 325 317 q 324 316 282 256 q 240 195 239 194 q 230 183 230 177 q 230 174 238 161 q 238 160 282 98 q 326 36 326 35 q 349 1 349 0 q 349 -4 344 -4 l 262 -4 q 260 -4 249 11 q 248 12 222 51 q 195 90 194 90 q 182 108 180 108 q 179 108 166 90 q 111 12 111 12 q 100 -4 97 -4 l 15 -4 q 11 -4 11 0 q 11 4 33 36 q 34 37 77 99 q 120 160 121 161 q 129 174 129 177 q 129 184 121 194 q 121 195 79 256 q 36 316 35 316 q 12 351 12 352 q 12 356 38 356 l 87 356 q 97 356 100 354 q 104 352 112 340 q 165 265 166 264 q 178 247 180 247 q 183 247 194 265 q 247 341 248 342 q 259 356 261 356 z"},")":{"x_min":0,"x_max":196,"ha":196,"o":"m 44 483 q 41 494 42 495 q 44 497 60 497 l 100 497 q 115 497 119 486 q 157 372 157 243 q 157 120 119 6 q 116 -4 101 -4 l 62 -4 q 45 -4 42 -1 q 40 1 44 10 q 50 24 57 50 q 63 76 72 131 q 80 187 80 242 q 80 369 44 483 z"},"&":{"x_min":0,"x_max":0,"ha":0,"o":"m -374 275 q -375 275 -376 277 q -377 279 -378 280 q -412 323 -412 371 q -412 379 -410 393 q -398 462 -334 484 q -314 491 -293 491 q -258 491 -227 470 q -176 433 -176 369 q -176 324 -206 287 q -224 267 -247 253 q -256 248 -256 246 q -256 242 -245 230 q -239 224 -198 181 l -173 156 q -164 147 -162 147 q -160 147 -154 155 q -125 197 -113 240 q -109 252 -106 254 q -103 257 -92 254 q -60 246 -58 245 q -46 242 -44 240 q -43 239 -45 230 q -68 154 -104 109 q -109 102 -109 97 q -109 92 -96 78 q -91 73 -80 62 l -69 53 q -60 45 -71 32 l -95 7 q -104 -4 -106 -4 q -107 -4 -114 2 q -120 6 -144 29 q -156 42 -162 42 q -168 42 -182 31 q -232 -12 -303 -12 q -379 -12 -425 26 q -472 63 -472 129 q -472 178 -440 216 q -419 239 -381 260 q -371 265 -371 268 q -371 271 -374 275 z m -307 197 q -322 215 -329 211 q -332 211 -340 206 q -369 191 -386 174 q -403 156 -403 128 q -403 93 -378 75 q -353 57 -311 57 q -252 57 -218 89 q -212 95 -212 96 q -212 98 -222 107 q -236 122 -247 134 q -276 165 -307 197 z m -312 307 q -305 298 -290 306 q -243 329 -243 369 q -243 398 -266 414 q -277 423 -293 423 q -302 423 -311 420 q -338 409 -343 381 q -344 378 -344 371 q -344 348 -322 320 q -314 309 -312 307 z"},"_":{"x_min":0,"x_max":450,"ha":450,"o":"m 411 58 l 411 2 q 411 -4 364 -4 l 87 -4 q 55 -4 48 -1 q 41 2 41 14 l 41 45 q 41 57 48 60 q 56 63 87 63 l 364 63 q 411 63 411 58 z"},"v":{"x_min":0,"x_max":390,"ha":390,"o":"m 375 356 q 379 356 379 353 q 379 347 363 305 q 363 304 311 168 q 258 32 258 31 q 248 7 243 1 q 238 -4 226 -4 l 165 -4 q 152 -4 147 1 q 143 7 133 31 q 132 33 80 168 q 28 303 27 306 q 10 353 10 353 q 10 356 32 356 l 74 356 q 85 356 89 352 q 93 348 101 327 q 102 326 139 231 q 177 137 177 136 q 192 96 195 96 q 197 96 213 136 q 213 137 232 185 q 251 232 270 279 l 289 327 q 300 356 304 356 z"},"O":{"x_min":0,"x_max":502,"ha":502,"o":"m 484 249 q 484 144 421 68 q 357 -8 251 -8 q 145 -8 82 67 q 20 143 20 248 q 20 354 84 427 q 149 500 251 500 q 353 500 418 428 q 484 355 484 249 z m 102 252 q 102 177 143 117 q 185 58 251 58 q 318 58 360 117 q 402 177 402 252 q 402 325 360 379 q 318 433 251 433 q 184 433 143 379 q 102 326 102 252 z"},"(":{"x_min":0,"x_max":196,"ha":196,"o":"m 154 483 q 118 369 118 242 q 118 187 126 131 q 135 76 142 50 q 148 24 154 10 q 158 1 156 -1 q 153 -4 135 -4 l 96 -4 q 81 -4 78 6 q 41 117 41 243 q 41 375 78 486 q 80 493 83 495 q 87 497 97 497 l 137 497 q 154 497 156 495 q 158 494 154 483 z"},"C":{"x_min":0,"x_max":474,"ha":474,"o":"m 427 110 q 442 102 442 100 q 442 98 438 90 q 410 46 361 19 q 312 -8 251 -8 q 145 -8 83 67 q 21 143 21 248 q 21 355 85 428 q 149 500 251 500 q 312 500 362 473 q 412 446 438 404 q 442 397 443 394 q 444 390 442 386 q 439 383 433 379 q 397 358 397 358 q 383 350 382 350 q 380 350 376 358 q 358 392 326 412 q 293 433 251 433 q 184 433 143 379 q 102 326 102 252 q 102 177 143 117 q 185 58 251 58 q 288 58 319 78 q 350 98 365 126 q 370 135 375 136 q 379 137 390 131 q 390 131 399 125 q 408 120 418 115 z"},"W":{"x_min":0,"x_max":751,"ha":751,"o":"m 199 -4 q 186 -4 180 2 q 175 9 165 38 q 164 40 97 236 q 29 433 29 434 q 11 488 11 493 q 11 496 32 496 l 73 496 q 85 496 89 491 q 93 485 102 460 q 102 460 127 385 q 153 311 179 237 q 204 163 204 161 q 223 106 226 106 q 229 106 243 164 q 243 165 283 311 q 322 456 322 457 q 333 496 336 496 l 416 496 q 419 496 430 457 q 430 456 469 311 q 508 165 508 164 q 522 106 526 106 q 528 106 547 161 q 547 163 573 237 q 599 311 625 385 q 650 459 650 460 q 662 496 666 496 l 736 496 q 741 496 741 493 q 741 491 722 434 q 722 433 654 236 q 587 40 586 38 q 572 -4 568 -4 l 477 -4 q 473 -4 464 33 q 464 34 429 165 q 394 295 393 297 q 378 354 376 354 q 373 354 358 297 q 357 295 323 165 q 288 34 288 33 q 281 8 276 2 q 271 -4 258 -4 z"},"A":{"x_min":0,"x_max":448,"ha":448,"o":"m 118 78 q 116 78 112 65 q 94 13 94 12 q 89 -4 85 -4 l 14 -4 q 10 -4 10 -1 q 10 3 28 58 q 29 59 97 256 q 164 453 164 454 q 178 496 183 496 l 266 496 q 271 496 284 454 q 284 453 352 256 q 419 59 420 58 q 439 0 439 -1 q 439 -4 417 -4 l 376 -4 q 365 -4 362 -1 q 359 1 355 12 q 336 65 336 65 q 332 78 330 78 z m 150 175 q 146 161 142 150 q 140 146 141 145 q 142 144 167 144 l 281 144 q 306 144 307 145 q 308 146 299 175 q 294 185 240 346 q 228 385 224 385 q 222 385 209 346 q 155 185 150 175 z"},"f":{"x_min":0,"x_max":278,"ha":278,"o":"m 64 355 q 67 355 67 359 l 67 360 q 75 499 220 499 q 226 499 236 499 q 247 498 249 498 q 255 497 255 485 l 255 448 q 255 435 254 434 q 253 433 249 434 q 241 436 229 436 q 160 436 146 371 q 144 362 144 361 q 144 357 145 356 q 146 355 158 355 l 205 355 q 226 355 226 350 l 226 294 q 226 289 220 289 l 148 289 q 146 289 145 287 q 143 285 143 202 l 143 196 l 143 31 q 143 -1 142 -2 q 140 -4 124 -4 l 86 -4 q 73 -4 70 1 q 67 7 67 30 l 67 195 q 67 230 67 249 q 66 268 64 277 q 62 286 61 288 q 59 289 54 289 l 39 289 q 28 289 27 290 q 26 291 26 306 l 26 338 q 26 355 31 355 z"},"Q":{"x_min":0,"x_max":504,"ha":504,"o":"m 307 -2 q 281 -8 251 -8 q 145 -8 82 67 q 20 143 20 248 q 20 354 84 427 q 149 500 251 500 q 353 500 418 428 q 484 355 484 249 q 484 186 460 129 q 436 72 394 41 q 387 36 386 34 q 386 31 390 24 l 403 1 q 408 -7 408 -12 q 408 -13 394 -21 q 394 -21 385 -26 q 376 -31 367 -36 l 359 -41 q 347 -48 343 -48 q 342 -48 335 -36 q 335 -36 332 -29 q 328 -22 324 -16 l 321 -9 q 316 0 307 -2 z m 341 114 q 347 104 348 104 q 349 104 354 109 q 402 164 402 252 q 402 325 360 379 q 318 433 251 433 q 184 433 143 379 q 102 326 102 252 q 102 177 143 117 q 185 58 251 58 q 266 58 275 60 q 280 61 280 63 q 280 65 275 74 q 274 75 267 87 q 260 100 260 101 q 254 111 254 115 q 254 116 268 124 q 268 124 276 128 q 285 133 294 138 l 303 143 q 313 148 318 147 q 322 146 327 138 q 341 115 341 114 z"},"w":{"x_min":0,"x_max":626,"ha":626,"o":"m 594 356 q 616 356 616 353 q 616 349 600 306 q 599 304 546 168 q 494 32 494 31 q 484 7 479 1 q 475 -4 462 -4 l 401 -4 q 389 -4 384 -1 q 379 2 373 19 q 373 20 351 78 q 328 137 328 138 q 316 170 313 170 q 311 170 300 139 q 300 138 288 108 q 276 78 265 49 l 253 19 q 245 -4 241 -4 l 149 -4 q 146 -4 132 31 q 131 33 80 167 q 28 302 28 303 q 10 353 10 353 q 10 356 32 356 l 73 356 q 84 356 88 352 q 92 348 100 326 q 100 325 138 227 q 176 129 177 127 q 191 86 195 86 q 197 86 210 120 q 211 121 237 189 q 263 257 263 258 q 270 275 273 279 q 277 283 289 283 l 338 283 q 350 283 354 279 q 357 275 364 258 q 364 257 390 189 q 416 121 417 120 q 430 86 432 86 q 436 86 450 127 q 451 129 488 227 q 525 325 525 326 q 533 348 538 352 q 542 356 553 356 z"},"-":{"x_min":0,"x_max":0,"ha":0,"o":"m -45 226 l -45 159 q -45 157 -46 156 q -48 154 -84 154 l -278 154 q -314 154 -316 156 q -317 157 -317 159 l -317 226 q -317 228 -316 229 q -313 231 -278 231 l -84 231 q -49 231 -46 229 q -45 228 -45 226 z"},"E":{"x_min":0,"x_max":370,"ha":370,"o":"m 335 491 l 335 435 q 335 429 330 429 l 113 429 q 110 429 109 428 q 108 427 108 401 l 108 307 q 108 287 113 283 q 117 279 141 279 l 280 279 q 303 279 308 276 q 313 273 313 262 l 313 230 q 313 219 308 216 q 303 213 280 213 l 141 213 q 108 213 108 208 l 108 68 q 108 65 109 64 q 110 63 113 63 l 341 63 q 346 63 346 57 l 346 1 q 346 -4 304 -4 l 73 -4 q 34 -4 32 -2 q 31 -1 31 51 l 31 442 q 31 494 32 495 q 33 496 36 496 l 330 496 q 335 496 335 491 z"},"s":{"x_min":0,"x_max":369,"ha":369,"o":"m 167 150 q 100 167 65 198 q 30 229 30 262 q 30 300 71 333 q 111 367 191 367 q 282 367 322 336 q 328 331 328 327 q 328 323 322 313 q 322 312 299 277 q 290 265 288 265 q 285 265 282 268 q 249 301 189 301 q 151 301 129 287 q 106 273 106 256 q 106 243 121 234 q 135 225 149 221 q 164 218 186 214 q 190 213 192 213 l 209 210 q 280 192 312 168 q 345 144 345 107 q 345 64 307 28 q 269 -9 185 -9 q 140 -9 102 4 q 64 17 51 26 q 38 36 30 45 q 24 53 33 65 q 56 99 57 101 q 65 115 68 115 q 72 115 76 110 q 84 102 97 91 q 110 81 139 69 q 167 58 197 58 q 268 58 268 102 q 268 110 263 118 q 259 125 253 129 q 248 133 238 136 q 228 140 221 141 q 214 142 201 144 q 188 146 184 146 z"},">":{"x_min":0,"x_max":484,"ha":484,"o":"m 444 192 q 444 185 443 181 q 441 178 434 172 q 427 167 409 160 q 408 160 253 91 q 98 22 96 21 q 47 0 44 0 l 43 0 q 41 2 41 4 l 41 83 q 41 87 70 99 q 70 99 121 121 q 171 143 222 165 q 272 187 273 187 q 323 209 323 212 q 323 216 279 232 q 186 269 91 302 q 56 314 48 320 q 41 325 41 337 l 41 382 q 41 402 43 404 l 44 404 q 44 404 95 386 q 97 385 251 326 q 406 268 407 267 q 433 257 438 253 q 443 249 443 238 q 443 238 443 227 q 443 215 443 203 z"},"l":{"x_min":0,"x_max":138,"ha":138,"o":"m 108 490 l 108 1 q 108 0 106 -2 q 104 -4 102 -4 l 36 -4 q 34 -4 32 -2 q 31 -1 31 1 l 31 490 q 31 493 32 494 q 33 495 36 495 l 102 495 q 105 495 106 494 q 108 492 108 490 z"},"8":{"x_min":0,"x_max":428,"ha":428,"o":"m 90 239 q 99 245 99 248 q 99 250 90 256 q 39 288 39 343 q 39 396 92 434 q 145 473 213 473 q 282 473 336 434 q 390 395 390 344 q 390 292 335 256 q 327 251 327 248 q 327 245 336 239 q 402 197 402 133 q 402 75 348 34 q 293 -8 213 -8 q 135 -8 81 32 q 26 72 26 133 q 26 198 90 239 z m 216 213 l 215 213 l 214 213 q 177 213 146 191 q 116 169 116 134 q 116 101 144 79 q 171 58 215 58 q 259 58 286 79 q 313 101 313 134 q 313 169 283 191 q 253 213 216 213 z m 216 280 q 249 280 274 296 q 300 312 300 343 q 300 371 276 389 q 253 407 215 407 q 177 407 152 389 q 128 371 128 343 q 128 312 154 296 q 181 280 214 280 l 215 280 z"},"\\":{"x_min":0,"x_max":509,"ha":509,"o":"m 383 -5 q 382 -5 358 28 q 357 29 221 228 q 84 426 83 427 q 42 485 42 491 q 42 494 46 494 l 127 494 q 131 494 153 462 q 154 460 291 261 q 427 62 428 61 q 469 1 469 -2 q 469 -5 464 -5 z"},"e":{"x_min":0,"x_max":414,"ha":414,"o":"m 136 143 q 108 143 108 142 q 108 137 108 137 q 114 115 132 94 q 162 58 208 58 q 256 58 284 93 q 286 96 289 102 l 293 106 q 295 111 298 111 q 301 111 313 103 q 314 102 331 90 q 347 79 348 78 q 354 74 359 70 q 362 68 362 67 q 362 63 357 58 q 305 -8 205 -8 q 124 -8 72 43 q 20 95 20 176 q 20 259 74 313 q 129 368 207 368 q 286 368 340 312 q 395 256 395 178 q 395 158 394 153 q 393 149 391 147 q 390 146 381 144 q 373 143 357 143 z m 308 217 q 301 243 283 264 q 253 301 208 301 q 164 301 133 263 q 115 242 108 216 q 107 212 107 210 q 107 210 130 210 l 286 210 q 307 210 308 211 q 309 212 308 217 z"},"b":{"x_min":0,"x_max":418,"ha":418,"o":"m 107 366 q 107 338 108 337 q 110 335 116 340 q 155 367 210 367 q 288 367 343 314 q 398 261 398 178 q 398 97 346 44 q 293 -9 212 -9 q 155 -9 116 19 q 109 23 108 22 q 107 21 107 15 l 107 6 q 107 0 105 -2 q 104 -4 87 -4 l 49 -4 q 33 -4 31 -2 q 30 -1 30 1 l 30 490 q 30 493 31 494 q 32 495 35 495 l 101 495 q 104 495 105 494 q 107 492 107 466 z m 107 173 q 107 153 110 142 q 118 113 135 95 q 165 58 210 58 q 255 58 285 96 q 316 136 316 180 q 316 226 285 264 q 254 301 210 301 q 162 301 134 265 q 119 247 110 218 q 107 206 107 191 z"},"%":{"x_min":0,"x_max":622,"ha":622,"o":"m 453 243 q 517 243 550 197 q 583 151 583 98 q 583 45 550 0 q 517 -45 453 -45 q 391 -45 357 -1 q 324 43 324 98 q 324 152 357 198 q 391 243 453 243 z m 458 508 q 490 486 491 485 q 504 477 504 474 q 504 472 475 430 q 472 426 331 221 q 190 17 189 14 q 159 -30 157 -30 q 153 -30 142 -22 q 141 -22 109 1 q 96 10 96 12 q 96 13 126 57 q 127 58 269 264 q 410 470 412 473 q 442 516 443 516 q 446 516 458 508 z m 406 97 q 406 61 421 42 q 436 22 454 22 q 473 22 487 42 q 501 61 501 97 q 501 134 487 155 q 473 176 454 176 q 436 176 421 155 q 406 134 406 97 z m 170 563 q 233 563 267 518 q 300 472 300 418 q 300 365 267 320 q 233 275 170 275 q 107 275 74 319 q 41 363 41 418 q 41 473 74 518 q 107 563 170 563 z m 123 417 q 123 381 138 361 q 152 342 171 342 q 189 342 204 361 q 218 381 218 417 q 218 454 204 475 q 189 496 171 496 q 152 496 138 475 q 123 454 123 417 z"},"m":{"x_min":0,"x_max":651,"ha":651,"o":"m 330 317 q 334 312 335 312 q 336 312 341 317 q 386 365 444 367 l 447 367 q 603 367 619 239 q 621 222 621 188 q 621 186 622 107 q 622 29 622 28 q 622 0 620 -2 q 618 -4 602 -4 l 564 -4 q 552 -4 548 1 q 545 7 545 30 l 545 186 q 545 230 539 245 q 521 301 456 301 q 411 301 389 274 q 367 248 364 211 q 365 33 365 30 q 365 0 363 -2 q 361 -4 359 -4 l 293 -4 q 288 -4 288 30 l 288 186 q 288 230 282 245 q 265 301 198 301 q 134 301 114 243 q 108 226 108 173 l 108 30 q 108 0 106 -2 q 104 -4 89 -4 l 50 -4 q 34 -4 32 -2 q 31 -1 31 1 l 31 351 q 31 354 32 355 q 33 356 36 356 l 103 356 q 105 356 106 355 q 108 354 108 349 l 108 346 q 108 342 109 341 q 110 340 117 344 q 147 366 187 367 l 190 367 q 290 367 330 317 z"},"#":{"x_min":0,"x_max":413,"ha":413,"o":"m 211 362 l 231 362 q 240 362 243 366 q 246 370 247 387 l 254 471 q 256 496 261 496 l 327 496 q 330 496 331 495 q 333 493 331 471 q 331 470 327 429 q 323 389 323 388 q 321 366 323 364 q 325 362 327 362 l 369 362 q 371 362 372 361 q 374 359 374 343 l 374 304 q 374 289 372 287 q 370 285 369 285 l 319 285 q 315 285 313 264 q 313 264 310 232 q 307 201 307 200 q 305 180 307 178 q 309 176 324 176 l 356 176 q 367 176 371 173 q 374 170 374 157 l 374 119 q 374 103 372 101 q 371 100 369 100 l 303 100 q 298 100 296 78 q 296 78 293 48 l 291 18 q 289 -4 285 -4 l 216 -4 q 215 -4 213 -2 q 213 -2 214 15 l 219 76 q 221 97 220 98 q 218 100 206 100 l 186 100 q 177 100 175 96 q 173 93 171 78 q 171 78 168 48 l 166 18 q 164 -4 159 -4 l 90 -4 q 90 -4 88 -2 q 88 -2 89 15 l 94 76 q 96 96 94 98 q 92 100 80 100 l 56 100 q 43 100 42 101 q 41 102 41 105 l 41 171 q 41 174 42 175 q 43 176 46 176 l 98 176 q 104 176 105 198 q 105 199 107 230 l 110 262 q 112 282 110 284 q 109 285 107 285 l 46 285 q 44 285 42 287 q 41 288 41 304 l 41 343 q 41 360 42 361 q 43 362 46 362 l 114 362 q 119 362 121 387 l 129 471 q 131 496 135 496 l 202 496 q 205 496 206 495 q 207 494 205 471 q 205 470 202 429 q 198 389 198 388 q 196 366 198 364 q 200 362 211 362 z m 194 285 q 188 285 187 264 q 187 264 184 232 q 182 201 182 200 q 180 179 181 178 q 183 176 185 176 l 223 176 q 229 176 230 198 q 230 199 233 230 l 236 262 q 238 282 236 284 q 235 285 232 285 z"},",":{"x_min":0,"x_max":163,"ha":163,"o":"m 124 -5 q 123 -36 105 -58 q 86 -82 50 -82 l 47 -82 q 42 -82 42 -70 q 41 -57 41 -56 q 41 -48 43 -46 q 45 -44 48 -44 q 48 -44 50 -44 q 52 -45 53 -45 q 68 -45 79 -34 q 87 -24 88 -13 q 88 -7 87 -6 q 85 -4 74 -4 l 56 -4 q 44 -4 43 -3 q 42 -2 42 15 l 42 54 q 42 70 43 71 q 45 73 62 73 l 104 73 q 120 73 122 71 q 124 69 124 68 l 124 -4 z"},"n":{"x_min":0,"x_max":395,"ha":395,"o":"m 108 346 q 108 342 109 341 q 110 340 117 344 q 150 366 187 367 l 190 367 q 346 367 362 239 q 364 222 364 188 q 364 186 365 108 q 365 30 365 29 q 365 0 363 -2 q 361 -4 345 -4 l 307 -4 q 294 -4 291 1 q 288 7 288 30 l 288 185 q 288 230 282 245 q 265 301 198 301 q 134 301 114 243 q 108 226 108 173 l 108 30 q 108 0 106 -2 q 104 -4 89 -4 l 50 -4 q 34 -4 32 -2 q 31 -1 31 1 l 31 351 q 31 354 32 355 q 33 356 36 356 l 103 356 q 105 356 106 355 q 108 354 108 349 z"},"h":{"x_min":0,"x_max":395,"ha":395,"o":"m 108 369 q 108 342 109 341 q 110 340 117 344 q 147 366 187 367 l 190 367 q 346 367 362 239 q 364 222 364 188 q 364 186 365 107 q 365 29 365 28 q 365 0 363 -2 q 361 -4 345 -4 l 307 -4 q 294 -4 291 1 q 288 7 288 30 l 288 186 q 288 230 282 245 q 265 301 198 301 q 134 301 114 243 q 108 226 108 173 l 108 30 q 108 0 106 -2 q 104 -4 89 -4 l 50 -4 q 34 -4 32 -2 q 31 -1 31 51 l 31 442 q 31 494 32 495 q 33 496 50 496 l 89 496 q 105 496 106 495 q 108 493 108 467 z"},"z":{"x_min":0,"x_max":390,"ha":390,"o":"m 359 301 q 359 290 343 271 q 343 271 264 185 q 185 99 183 97 q 156 67 156 65 q 156 63 191 63 l 326 63 q 359 63 359 57 l 359 1 q 359 -1 358 -2 q 356 -4 316 -4 l 75 -4 q 35 -4 33 -2 q 31 0 31 1 l 31 61 q 31 63 47 80 q 47 80 126 167 q 206 254 207 255 q 235 286 235 288 q 235 290 200 290 l 64 290 q 34 290 33 291 q 31 293 31 307 l 31 339 q 31 354 33 355 q 34 356 75 356 l 316 356 q 357 356 358 355 q 359 354 359 338 z"},"B":{"x_min":0,"x_max":398,"ha":398,"o":"m 219 -4 l 62 -4 q 34 -4 32 -2 q 30 0 30 51 l 30 442 q 30 493 32 495 q 33 496 63 496 l 197 496 q 278 495 313 457 q 349 419 349 360 q 349 300 317 265 q 377 229 377 145 q 377 84 340 40 q 304 -4 219 -4 z m 219 221 l 134 221 q 111 221 109 219 q 107 217 107 216 l 107 68 q 107 66 109 64 q 110 63 133 63 l 212 63 l 229 63 q 259 67 277 91 q 295 114 295 147 q 295 183 274 202 q 254 221 219 221 z m 192 429 l 112 429 q 110 429 109 428 q 107 426 107 424 l 107 292 q 107 291 109 289 q 111 287 130 287 l 192 287 q 228 287 247 307 q 267 326 267 361 q 267 429 192 429 z"},"K":{"x_min":0,"x_max":427,"ha":427,"o":"m 124 276 q 126 279 205 376 q 284 474 285 475 q 303 496 304 496 l 389 496 q 394 496 394 492 q 394 486 364 451 q 363 450 298 369 q 232 287 231 286 q 220 271 220 267 q 220 263 232 245 q 233 244 302 146 q 371 47 373 44 q 401 5 401 0 q 401 -4 396 -4 l 315 -4 q 312 -4 297 17 q 296 18 241 97 q 186 176 184 179 q 167 203 166 203 q 164 203 154 190 q 153 189 133 165 q 113 140 113 139 q 107 132 107 119 l 107 24 q 107 5 104 0 q 101 -4 88 -4 l 49 -4 q 34 -4 32 -2 q 30 0 30 51 l 30 442 q 30 493 32 495 q 33 496 36 496 l 102 496 q 105 496 106 495 q 107 494 107 458 l 107 282 q 107 257 108 256 q 108 258 124 276 z"},"R":{"x_min":0,"x_max":402,"ha":402,"o":"m 205 496 q 289 495 333 442 q 378 390 378 314 q 378 220 321 170 q 316 166 316 164 q 316 162 321 160 q 359 145 365 63 q 367 32 375 5 q 376 -1 375 -2 q 374 -3 359 -3 l 310 -3 q 300 -3 299 -2 q 288 9 288 46 q 288 126 209 126 l 112 126 q 107 126 107 100 l 107 22 q 107 -1 106 -2 q 104 -4 88 -4 l 49 -4 q 34 -4 32 -2 q 30 0 30 51 l 30 442 q 30 480 35 488 q 40 496 64 496 z m 112 429 q 110 429 109 428 q 107 426 107 424 l 107 198 q 107 196 109 194 q 110 193 112 193 l 200 193 q 238 193 267 227 q 296 261 296 315 q 296 370 268 399 q 239 429 200 429 z"},"T":{"x_min":0,"x_max":427,"ha":427,"o":"m 147 429 l 58 429 q 34 429 32 431 q 30 433 30 435 l 30 491 q 30 496 35 496 l 391 496 q 396 496 396 479 l 396 447 q 396 433 395 431 q 393 429 369 429 l 279 429 q 254 429 253 428 q 252 427 252 379 l 252 46 q 252 0 250 -2 q 248 -4 233 -4 l 194 -4 q 178 -4 176 -2 q 175 -1 175 46 l 175 379 q 175 426 173 428 q 172 429 147 429 z"},"P":{"x_min":0,"x_max":401,"ha":401,"o":"m 205 496 q 288 495 333 442 q 378 389 378 313 q 378 238 334 183 q 290 128 205 126 l 132 126 q 110 126 109 125 q 107 123 107 121 l 107 1 q 107 -1 106 -2 q 104 -4 88 -4 l 49 -4 q 34 -4 32 -2 q 30 0 30 51 l 30 442 q 30 493 32 495 q 33 496 64 496 z m 200 429 l 112 429 q 110 429 109 428 q 107 426 107 424 l 107 198 q 107 196 109 194 q 110 193 112 193 l 200 193 q 238 193 267 227 q 296 261 296 315 q 296 370 268 399 q 239 429 200 429 z"},"t":{"x_min":0,"x_max":288,"ha":288,"o":"m 153 389 q 153 370 154 369 q 156 367 171 367 l 207 367 q 223 367 224 366 q 226 364 226 362 l 226 306 q 226 301 220 301 l 158 301 q 153 301 153 231 l 153 153 q 153 129 155 117 q 168 55 238 55 q 252 55 256 56 q 261 57 262 56 q 264 54 264 41 l 264 8 q 264 -7 256 -8 l 242 -8 l 237 -8 q 159 -8 120 23 q 80 55 76 126 l 76 153 l 76 236 q 76 297 74 299 q 72 301 62 301 l 40 301 q 28 301 27 302 q 26 303 26 306 l 26 362 q 26 367 40 367 l 61 367 q 69 367 73 371 q 76 375 76 389 l 76 445 q 76 459 79 463 q 82 467 95 467 l 134 467 q 149 467 151 465 q 153 463 153 445 z"},"M":{"x_min":0,"x_max":513,"ha":513,"o":"m 160 465 q 160 465 180 413 q 200 361 220 310 q 240 258 240 257 q 252 224 254 224 q 256 224 270 260 q 270 260 293 319 q 317 378 341 438 l 364 496 l 482 496 l 482 54 q 482 -1 481 -2 q 479 -4 463 -4 l 425 -4 q 409 -4 407 -2 q 406 -1 406 43 l 406 335 q 406 397 404 397 q 402 397 383 349 q 382 348 341 246 q 301 145 301 144 q 292 122 288 118 q 284 113 273 113 l 229 113 q 217 113 213 118 q 209 122 202 143 q 201 144 165 241 q 129 339 129 340 q 112 387 109 387 q 108 387 108 325 l 108 43 q 108 0 106 -2 q 104 -4 88 -4 l 50 -4 q 34 -4 32 -2 q 31 -1 31 54 l 31 496 l 125 496 q 142 496 147 492 q 152 487 160 465 z"},"g":{"x_min":0,"x_max":437,"ha":437,"o":"m 321 22 q 281 -8 221 -8 q 140 -8 87 44 q 35 97 35 178 q 35 261 89 314 q 144 368 223 368 q 281 368 321 338 q 328 333 329 334 q 330 335 330 342 l 330 351 q 330 356 333 359 q 337 361 349 361 l 388 361 q 404 361 406 359 q 407 358 407 317 l 407 -2 l 407 -3 q 403 -75 355 -115 q 307 -154 236 -154 q 190 -154 146 -138 q 103 -122 81 -103 q 72 -95 81 -81 l 103 -46 q 111 -31 113 -31 q 116 -31 123 -37 q 176 -77 229 -77 q 267 -77 295 -58 q 323 -38 328 -12 q 330 -2 330 11 l 330 17 q 330 24 328 26 q 327 27 321 22 z m 148 265 q 117 227 117 180 q 117 134 148 96 q 180 58 224 58 q 268 58 298 95 q 328 132 328 181 q 328 228 299 265 q 271 301 224 301 q 177 301 148 265 z"},"y":{"x_min":0,"x_max":392,"ha":392,"o":"m 360 356 q 382 356 382 353 q 382 350 358 295 q 357 294 274 105 q 191 -83 190 -84 q 179 -110 174 -116 q 169 -122 158 -122 l 116 -122 q 97 -122 95 -120 q 93 -118 104 -92 q 104 -92 121 -53 q 138 -14 138 -13 q 141 -7 141 -3 q 141 2 135 18 q 135 19 82 160 q 28 301 27 303 q 10 352 10 353 q 10 356 14 356 l 85 356 q 88 356 99 327 q 99 326 134 232 q 170 139 171 138 q 186 99 187 99 q 189 99 207 138 q 208 140 250 233 q 291 327 291 328 q 300 348 304 352 q 309 356 319 356 z"},"@":{"x_min":0,"x_max":750,"ha":750,"o":"m 389 519 q 525 516 607 444 q 666 393 688 319 q 709 246 709 150 q 709 143 709 132 q 710 121 710 117 q 710 15 671 -33 q 633 -80 574 -80 q 546 -80 524 -69 q 503 -59 492 -42 q 481 -26 477 -14 q 473 -1 471 10 q 470 18 467 19 q 464 20 457 15 q 421 -11 362 -11 q 281 -11 229 42 q 176 94 176 175 q 176 258 230 311 q 285 363 363 363 q 417 363 456 337 q 463 332 466 333 q 469 334 469 343 l 469 348 q 469 354 471 356 q 472 357 488 357 l 527 357 q 543 357 544 356 q 546 354 546 311 l 546 33 l 546 28 q 546 -4 580 -4 q 606 -4 617 19 q 628 41 628 99 l 628 170 q 628 242 613 295 q 599 349 556 386 q 490 442 381 442 q 257 442 189 370 q 123 301 123 175 q 123 55 184 -11 q 211 -41 250 -59 q 289 -77 312 -81 q 334 -85 348 -85 q 355 -85 358 -89 q 360 -93 360 -106 q 360 -106 361 -121 q 361 -135 361 -148 l 362 -162 l 361 -162 q 342 -162 313 -158 q 284 -154 225 -129 q 165 -104 124 -59 q 41 32 41 174 q 41 324 131 421 q 223 519 378 519 l 388 519 z m 364 296 q 317 296 288 260 q 258 223 258 176 q 258 130 288 93 q 320 55 364 55 q 409 55 439 92 q 469 127 469 176 q 469 227 440 261 q 412 296 364 296 z"},".":{"x_min":0,"x_max":162,"ha":162,"o":"m 123 54 l 123 16 q 123 0 121 -2 q 119 -4 103 -4 l 61 -4 q 44 -4 42 -2 q 41 -1 41 16 l 41 54 q 41 71 42 72 q 43 73 61 73 l 103 73 q 120 73 121 72 q 123 70 123 54 z"},"p":{"x_min":0,"x_max":419,"ha":419,"o":"m 117 339 q 156 366 213 366 q 294 366 347 313 q 399 260 399 179 q 399 96 345 43 q 291 -9 212 -9 q 155 -9 117 18 q 111 22 110 21 q 108 20 108 -4 l 108 -84 q 108 -107 106 -109 q 105 -110 89 -110 l 50 -110 q 34 -110 33 -109 q 31 -107 31 -58 l 31 304 q 31 354 33 355 q 34 356 50 356 l 89 356 q 105 356 106 355 q 108 354 108 347 l 108 342 q 108 337 110 335 q 111 334 117 339 z m 111 140 q 120 110 135 93 q 162 58 211 58 q 258 58 287 94 q 317 131 317 177 q 317 222 286 262 q 256 300 211 300 q 167 300 136 262 q 119 243 111 215 q 108 203 108 185 l 108 166 q 108 151 111 140 z"},"X":{"x_min":0,"x_max":413,"ha":413,"o":"m 20 -4 q 16 -4 16 0 q 16 4 40 42 q 41 43 96 132 q 150 222 151 224 q 159 237 159 242 q 159 249 151 261 q 151 262 93 355 q 35 449 35 450 q 11 489 11 492 q 11 496 15 496 l 93 496 q 97 496 109 476 q 110 475 150 410 q 189 345 190 343 q 205 318 207 318 q 209 318 224 343 q 225 345 265 410 q 305 475 306 476 q 318 496 321 496 l 399 496 q 404 496 404 492 q 404 489 380 450 q 379 449 321 355 q 264 262 264 261 q 256 249 256 242 q 256 237 264 224 q 265 222 319 132 q 374 43 375 42 q 399 4 399 0 q 399 -4 394 -4 l 316 -4 q 313 -4 301 17 q 301 17 282 47 q 263 78 243 109 q 224 141 224 142 q 209 166 207 166 q 206 166 191 142 q 191 141 172 109 q 152 78 133 47 l 114 17 q 102 -4 98 -4 z"},"*":{"x_min":0,"x_max":299,"ha":299,"o":"m 187 449 q 187 447 189 447 q 190 447 195 451 l 203 457 q 209 462 211 462 q 213 462 223 450 q 248 420 248 420 q 258 409 258 405 q 258 402 247 394 q 246 393 232 382 q 219 371 218 370 q 210 363 210 362 q 210 362 218 355 q 219 355 232 344 q 246 332 247 331 q 258 322 258 319 q 258 316 248 305 l 223 275 q 211 263 211 263 q 208 263 196 273 q 195 274 179 288 q 163 301 162 301 q 153 309 149 309 q 145 309 136 301 q 135 301 119 288 q 103 274 102 273 q 90 263 88 263 q 88 263 76 275 l 51 305 q 41 316 41 319 q 41 322 52 331 q 53 332 66 344 q 80 355 81 355 q 88 361 88 362 q 88 364 81 370 q 80 371 66 382 q 53 393 52 394 q 41 402 41 405 q 41 410 50 420 q 76 449 76 450 q 86 462 88 462 q 90 462 96 457 l 103 451 q 106 448 109 448 q 111 448 111 449 l 111 491 q 111 494 112 495 q 113 496 130 496 l 168 496 q 185 496 186 495 q 187 494 187 491 z"},"Y":{"x_min":0,"x_max":485,"ha":485,"o":"m 472 496 q 477 496 477 493 q 477 485 449 443 q 447 440 370 316 q 292 192 291 191 q 281 176 281 159 l 281 29 q 281 -1 279 -3 q 278 -4 262 -4 l 223 -4 q 207 -4 206 -3 q 204 -1 204 29 l 204 159 q 204 175 195 189 q 194 192 117 316 q 40 440 38 443 q 10 490 10 493 q 10 496 35 496 l 80 496 q 91 496 95 493 q 100 489 109 472 q 110 470 166 377 q 222 285 223 284 q 240 254 243 254 q 245 254 262 282 q 263 284 320 377 q 378 471 378 472 q 393 496 396 496 z"},"c":{"x_min":0,"x_max":398,"ha":398,"o":"m 327 255 q 315 243 312 243 q 309 243 306 248 q 304 252 296 262 q 265 300 219 300 q 175 300 144 262 q 112 224 112 177 q 112 132 143 93 q 172 57 219 57 q 268 57 296 92 q 298 94 306 105 q 309 110 311 110 q 312 110 325 102 q 326 102 335 95 q 344 89 353 83 l 361 77 q 374 68 374 66 q 374 62 370 57 q 347 27 305 9 q 264 -9 216 -9 q 135 -9 83 42 q 30 94 30 175 q 30 258 85 312 q 140 367 218 367 q 261 367 298 350 q 336 333 358 307 q 364 299 363 295 q 362 292 354 284 q 354 283 341 270 q 328 256 327 255 z"},"!":{"x_min":0,"x_max":162,"ha":162,"o":"m 123 49 l 123 10 q 123 -5 121 -7 q 119 -9 103 -9 l 61 -9 q 44 -9 42 -7 q 41 -6 41 10 l 41 49 q 41 65 42 66 q 44 68 61 68 l 103 68 q 119 68 121 66 q 123 64 123 49 z m 123 405 l 123 106 q 123 104 121 102 q 120 101 118 101 l 46 101 q 43 101 42 102 q 41 103 41 106 l 41 405 q 41 408 42 409 q 43 410 61 410 l 103 410 q 120 410 121 409 q 123 407 123 405 z"},"/":{"x_min":0,"x_max":509,"ha":509,"o":"m 127 -5 l 46 -5 q 42 -5 42 -2 q 42 1 83 61 q 84 62 221 261 q 357 460 358 462 q 381 494 383 494 l 464 494 q 469 494 469 491 q 469 486 427 427 q 426 426 290 228 q 154 29 153 28 q 130 -5 127 -5 z"},"[":{"x_min":0,"x_max":220,"ha":220,"o":"m 41 -3 l 41 491 q 41 494 42 495 q 43 496 68 496 l 152 496 q 177 496 178 495 q 179 494 179 491 l 179 424 q 179 422 178 421 q 176 419 163 419 l 134 419 q 120 419 119 418 q 118 417 118 374 l 118 114 q 118 71 119 70 q 120 69 123 69 l 174 69 q 176 69 178 67 q 179 66 179 64 l 179 -3 q 179 -5 178 -6 q 176 -8 174 -8 l 46 -8 q 44 -8 42 -6 q 41 -5 41 -3 z"},"6":{"x_min":0,"x_max":419,"ha":419,"o":"m 324 381 q 282 405 247 407 l 235 407 q 184 407 150 381 q 122 357 110 303 q 108 297 108 296 q 107 291 110 289 q 114 287 121 292 q 166 320 224 320 q 295 320 347 271 q 399 223 399 151 q 399 85 351 39 q 303 -8 215 -8 q 118 -8 69 47 q 20 103 20 179 q 20 201 24 236 q 42 378 120 440 q 161 474 228 474 q 231 474 239 473 q 246 473 249 473 q 308 469 384 424 l 378 418 q 348 387 347 386 q 339 378 335 377 q 331 376 324 381 z m 114 196 q 108 186 105 174 q 103 162 102 156 l 102 149 q 102 123 130 91 q 159 59 212 59 q 261 59 289 89 q 317 119 317 157 q 317 196 288 225 q 259 254 217 254 q 185 254 156 236 q 127 219 114 196 z"},"r":{"x_min":0,"x_max":271,"ha":271,"o":"m 108 345 q 108 342 110 342 q 113 342 116 345 q 142 366 182 366 l 189 366 q 227 366 237 365 q 244 364 246 362 q 247 361 244 345 q 244 344 240 325 q 235 307 235 306 q 232 293 229 289 q 228 288 221 291 q 200 299 178 299 q 150 299 134 277 q 117 256 113 234 q 108 213 108 191 l 108 31 q 108 7 105 1 q 102 -4 89 -4 l 50 -4 q 34 -4 32 -2 q 31 -1 31 1 l 31 351 q 31 354 32 355 q 33 356 36 356 l 103 356 q 105 356 106 355 q 108 354 108 351 z"},"2":{"x_min":0,"x_max":381,"ha":381,"o":"m 29 404 q 31 409 51 424 q 71 439 114 456 q 157 473 202 473 q 244 473 276 458 q 308 444 324 422 q 341 399 349 376 q 356 353 356 329 q 356 224 205 135 q 191 127 164 112 q 137 98 124 89 q 111 81 106 72 q 104 68 105 65 q 106 63 143 63 l 319 63 q 353 63 355 61 q 356 60 356 45 l 356 14 q 356 -1 355 -2 q 354 -4 313 -4 l 69 -4 q 29 -4 27 -2 q 26 -1 26 1 l 26 63 q 26 88 36 108 q 45 128 65 145 q 86 161 96 168 q 106 175 133 188 q 138 191 140 192 q 207 228 241 258 q 274 288 274 325 q 274 356 253 382 q 232 407 197 407 q 169 407 140 390 q 111 373 97 352 q 92 346 91 346 q 88 346 75 358 q 74 359 53 382 l 30 404 q 29 404 29 404 z"},"{":{"x_min":0,"x_max":283,"ha":283,"o":"m 53 194 q 41 194 41 212 l 41 253 q 41 271 51 272 q 74 272 94 284 q 111 295 111 335 q 111 412 139 455 q 166 498 231 500 q 241 500 242 499 q 244 497 244 483 l 244 443 q 244 423 233 423 q 200 421 187 384 q 177 356 177 319 q 177 262 151 236 l 151 235 q 166 221 171 208 q 177 196 177 171 q 177 137 187 109 q 200 71 233 69 q 244 69 244 52 l 244 11 q 244 -4 242 -6 q 240 -8 231 -8 q 167 -6 132 48 q 111 80 111 135 q 111 171 96 181 q 73 194 53 194 z"},"9":{"x_min":0,"x_max":430,"ha":430,"o":"m 101 85 q 141 62 178 60 q 179 60 184 59 q 188 59 190 59 q 244 59 276 86 q 305 110 315 160 q 316 163 316 167 q 317 173 315 174 q 311 176 304 171 q 259 143 200 143 q 129 143 77 191 q 25 240 25 312 q 25 379 74 426 q 122 474 210 474 q 306 474 355 417 q 404 361 404 285 q 404 255 400 227 q 382 89 305 27 q 260 -8 196 -8 q 192 -8 185 -7 q 178 -7 175 -7 q 118 -3 41 42 l 41 43 q 41 43 45 48 q 45 48 53 56 q 62 64 70 72 l 78 80 q 86 88 90 89 q 94 90 101 85 z m 310 267 q 315 277 319 290 q 322 302 322 309 l 323 315 q 323 343 294 375 q 265 408 213 408 q 164 408 136 376 q 107 345 107 307 q 107 268 137 238 q 166 209 208 209 q 240 209 269 226 q 297 243 310 267 z"}," ":{"x_min":0,"x_max":131,"ha":131,"o":""},"I":{"x_min":0,"x_max":138,"ha":138,"o":"m 108 442 l 108 51 q 108 0 106 -2 q 104 -4 88 -4 l 50 -4 q 34 -4 32 -2 q 31 -1 31 51 l 31 442 q 31 494 32 495 q 33 496 50 496 l 88 496 q 105 496 106 495 q 108 493 108 442 z"},"H":{"x_min":0,"x_max":413,"ha":413,"o":"m 112 279 l 302 279 q 304 279 306 281 q 307 282 307 284 l 307 491 q 307 493 309 495 q 310 496 326 496 l 365 496 q 381 496 382 495 q 384 493 384 442 l 384 51 q 384 0 382 -2 q 380 -4 379 -4 l 312 -4 q 311 -4 309 -2 q 307 0 307 1 l 307 208 q 307 210 306 211 q 304 213 302 213 l 112 213 q 111 213 109 211 q 107 209 107 208 l 107 1 q 107 -1 106 -2 q 104 -4 88 -4 l 49 -4 q 34 -4 32 -2 q 30 0 30 51 l 30 442 q 30 493 32 495 q 33 496 35 496 l 102 496 q 105 496 106 495 q 107 494 107 491 l 107 284 q 107 283 109 281 q 111 279 112 279 z"},"4":{"x_min":0,"x_max":408,"ha":408,"o":"m 354 425 l 354 201 q 354 162 355 160 q 356 159 359 159 l 379 159 q 380 159 382 157 q 384 155 384 140 l 384 101 q 384 85 383 84 q 381 82 373 82 l 365 82 q 354 82 354 62 l 354 16 q 354 3 351 0 q 348 -4 335 -4 l 296 -4 q 283 -4 280 0 q 277 3 277 16 l 277 62 q 277 80 276 81 q 275 82 272 82 l 31 82 q 30 82 28 84 q 26 86 26 103 l 26 152 q 26 159 27 159 l 27 160 l 36 173 q 37 174 137 311 q 237 447 246 458 q 252 465 254 467 l 349 467 q 354 467 354 425 z m 139 201 q 113 167 113 163 q 113 159 150 159 l 248 159 q 269 159 273 164 q 277 169 277 192 l 277 328 q 277 377 274 379 l 273 379 q 270 379 238 336 q 139 201 139 201 z"},"~":{"x_min":0,"x_max":532,"ha":532,"o":"m 103 134 l 59 134 q 44 134 43 135 q 41 137 41 146 q 43 208 78 255 q 113 303 176 303 q 212 303 241 284 q 271 266 286 244 q 301 223 321 204 q 341 186 359 186 q 377 186 390 201 q 402 217 406 229 q 409 242 410 252 q 411 263 425 262 q 425 262 436 261 q 446 260 464 260 q 489 260 491 258 q 492 257 492 249 q 490 194 452 149 q 413 104 362 104 q 334 104 307 122 q 280 141 263 162 q 246 184 222 202 q 198 221 174 221 q 123 221 123 152 q 123 141 119 137 q 115 134 103 134 z"},"D":{"x_min":0,"x_max":431,"ha":431,"o":"m 181 496 q 281 495 346 427 q 411 358 411 253 q 411 149 349 74 q 287 -1 185 -4 l 60 -4 q 34 -4 32 -2 q 30 0 30 51 l 30 442 q 30 493 32 495 q 33 496 62 496 l 179 496 z m 178 429 l 112 429 q 110 429 109 428 q 107 426 107 424 l 107 68 q 107 66 109 64 q 110 63 127 63 l 169 63 q 193 63 193 63 q 254 70 292 128 q 329 187 329 257 q 329 329 288 379 q 246 429 178 429 z"},"0":{"x_min":0,"x_max":415,"ha":415,"o":"m 208 470 q 287 470 342 399 q 396 329 396 229 q 396 128 342 60 q 287 -8 205 -8 q 125 -8 73 58 q 21 123 21 226 q 21 331 76 400 q 130 470 208 470 z m 103 227 q 103 145 135 102 q 167 59 209 59 q 251 59 283 102 q 314 145 314 227 q 314 310 282 356 q 249 403 209 403 q 169 403 136 356 q 103 310 103 227 z"},"F":{"x_min":0,"x_max":359,"ha":359,"o":"m 335 491 l 335 435 q 335 429 330 429 l 113 429 q 110 429 109 428 q 108 427 108 401 l 108 307 q 108 287 113 283 q 117 279 141 279 l 280 279 q 303 279 308 276 q 313 273 313 262 l 313 230 q 313 213 308 213 l 113 213 q 108 213 108 208 l 108 1 q 108 0 106 -2 q 104 -4 88 -4 l 50 -4 q 34 -4 32 -2 q 31 -1 31 51 l 31 442 q 31 494 32 495 q 33 496 72 496 l 293 496 q 335 496 335 491 z"},"k":{"x_min":0,"x_max":390,"ha":390,"o":"m 105 272 q 105 231 107 231 q 110 231 132 252 q 132 252 182 298 l 230 344 q 244 356 246 356 l 349 356 q 354 356 354 352 q 354 349 324 321 q 323 320 277 277 l 230 233 q 219 222 219 218 q 219 212 229 198 q 236 190 338 38 q 362 4 362 0 q 362 -4 357 -4 l 271 -4 q 268 -4 255 15 q 254 16 212 78 q 170 140 169 141 q 162 150 157 158 l 155 161 q 152 161 144 153 q 111 123 111 123 q 105 117 105 115 l 105 1 q 105 0 103 -3 q 102 -4 86 -4 l 47 -4 q 31 -4 30 -3 q 28 -1 28 1 l 28 490 q 28 492 30 494 q 31 495 33 495 l 100 495 q 105 495 105 457 z"},"u":{"x_min":0,"x_max":395,"ha":395,"o":"m 288 12 q 288 16 286 18 q 285 19 278 14 q 249 -7 209 -9 l 205 -9 q 50 -9 33 119 q 31 137 31 171 l 31 325 q 31 354 32 355 q 33 356 50 356 l 89 356 q 102 356 105 351 q 108 346 108 322 l 108 172 q 108 125 113 113 q 132 57 198 57 q 262 57 282 115 q 288 133 288 186 l 288 322 q 288 354 289 355 q 290 356 307 356 l 345 356 q 362 356 363 355 q 365 354 365 351 l 365 1 q 365 0 363 -2 q 361 -4 359 -4 l 293 -4 q 291 -4 289 -2 q 288 -1 288 3 z"},"]":{"x_min":0,"x_max":220,"ha":220,"o":"m 179 -3 q 179 -5 178 -6 q 176 -8 174 -8 l 46 -8 q 44 -8 42 -6 q 41 -5 41 11 l 41 50 q 41 66 42 67 q 44 69 46 69 l 97 69 q 100 69 101 70 q 102 71 102 74 l 102 414 q 102 417 101 418 q 100 419 97 419 l 46 419 q 44 419 42 421 q 41 422 41 438 l 41 477 q 41 494 42 495 q 43 496 68 496 l 152 496 q 177 496 178 495 q 179 494 179 491 z"},"U":{"x_min":0,"x_max":420,"ha":420,"o":"m 232 -9 q 230 -10 226 -10 l 193 -10 l 189 -10 l 189 -9 l 188 -9 q 118 -9 77 33 q 36 74 28 143 q 26 162 26 210 l 26 456 q 26 494 27 495 q 29 497 45 497 l 83 497 q 99 497 101 495 q 102 494 102 463 l 102 458 l 102 178 l 102 172 q 102 159 103 152 q 112 56 189 56 q 229 57 231 57 l 232 57 l 232 56 q 307 56 317 152 q 318 159 318 202 l 318 456 q 318 484 322 491 q 325 497 338 497 l 376 497 q 392 497 394 495 q 395 494 395 468 l 395 457 q 395 456 395 394 q 395 331 394 264 q 394 197 394 186 q 394 162 392 143 q 384 73 344 32 q 304 -9 233 -9 l 232 -9 l 232 -10 z"},"o":{"x_min":0,"x_max":415,"ha":415,"o":"m 208 367 q 287 367 342 312 q 396 258 396 180 q 396 102 341 47 q 286 -8 205 -8 q 126 -8 74 44 q 21 97 21 178 q 21 261 76 314 q 130 367 208 367 z m 209 300 q 165 300 134 263 q 103 225 103 180 q 103 134 134 96 q 166 58 209 58 q 255 58 285 95 q 314 130 314 180 q 314 227 285 264 q 257 300 209 300 z"},"N":{"x_min":0,"x_max":446,"ha":446,"o":"m 340 165 l 340 449 q 340 494 341 495 q 342 496 359 496 l 398 496 q 414 496 415 495 q 417 493 417 491 l 417 1 q 417 -4 393 -4 l 327 -4 q 314 -4 310 1 q 305 6 292 29 q 291 30 214 181 q 138 331 137 332 q 110 382 109 382 q 108 382 108 327 l 108 43 q 108 0 106 -2 q 104 -4 88 -4 l 50 -4 q 34 -4 32 -2 q 31 -1 31 1 l 31 491 q 31 496 55 496 l 121 496 q 134 496 139 491 q 144 486 156 463 q 156 462 233 312 q 311 161 311 160 q 337 110 338 110 q 340 110 340 165 z"},"+":{"x_min":0,"x_max":375,"ha":375,"o":"m 250 231 l 311 231 q 326 231 331 228 q 335 225 335 212 l 335 173 q 335 160 331 157 q 327 154 311 154 l 250 154 q 226 154 226 149 l 226 53 q 226 50 225 49 q 224 48 207 48 l 168 48 q 152 48 151 49 q 149 51 149 71 l 149 131 q 149 146 146 150 q 143 154 126 154 l 64 154 q 49 154 45 157 q 41 160 41 173 l 41 212 q 41 225 45 228 q 49 231 64 231 l 126 231 q 143 231 146 235 q 149 238 149 254 l 149 314 q 149 334 151 336 q 152 337 168 337 l 207 337 q 224 337 225 336 q 226 335 226 314 l 226 254 q 226 238 229 235 q 233 231 250 231 z"},"G":{"x_min":0,"x_max":472,"ha":472,"o":"m 411 273 q 436 273 440 260 q 445 246 445 176 l 445 137 q 445 94 410 56 q 351 -9 251 -9 q 146 -9 83 67 q 21 143 21 248 q 21 355 86 428 q 150 500 251 500 q 312 500 363 473 q 413 446 439 404 q 443 397 444 394 q 445 390 442 386 q 439 383 433 379 q 398 358 398 358 q 384 350 382 350 q 380 350 376 358 q 358 392 326 412 q 293 433 251 433 q 184 433 143 379 q 102 326 102 252 q 102 177 143 117 q 185 57 251 57 q 272 57 298 67 q 330 81 349 111 q 368 141 368 180 l 368 191 q 368 203 366 205 q 365 206 342 206 l 261 206 q 238 206 236 208 q 234 210 234 211 l 234 268 q 234 273 268 273 z"},"q":{"x_min":0,"x_max":419,"ha":419,"o":"m 312 -4 q 312 21 311 21 q 310 22 303 18 q 265 -9 208 -9 q 130 -9 76 43 q 21 96 21 179 q 21 260 74 313 q 127 366 207 366 q 264 366 303 339 q 310 334 311 335 q 312 336 312 342 l 312 347 q 312 353 314 355 q 315 356 331 356 l 370 356 q 387 356 388 355 q 389 354 389 304 l 389 -58 q 389 -108 388 -109 q 387 -110 370 -110 l 331 -110 q 315 -110 314 -109 q 312 -106 312 -84 z m 312 185 q 312 203 309 215 q 301 243 284 262 q 253 300 209 300 q 164 300 134 262 q 103 222 103 177 q 103 131 133 94 q 162 58 209 58 q 258 58 285 93 q 300 110 309 140 q 312 151 312 166 z"},"d":{"x_min":0,"x_max":418,"ha":418,"o":"m 311 366 l 311 466 q 311 491 313 494 q 314 495 316 495 l 383 495 q 386 495 387 494 q 388 493 388 490 l 388 1 q 388 -1 387 -2 q 385 -4 369 -4 l 330 -4 q 315 -4 313 -2 q 311 1 311 6 l 311 15 q 311 21 310 22 q 309 23 302 19 q 263 -9 206 -9 q 125 -9 72 44 q 20 97 20 178 q 20 261 74 314 q 129 367 207 367 q 263 367 302 340 q 308 335 310 337 q 311 338 311 366 z m 311 173 l 311 191 q 311 206 308 218 q 299 247 284 265 q 256 301 208 301 q 163 301 132 264 q 102 227 102 180 q 102 136 133 96 q 163 58 208 58 q 253 58 283 95 q 300 113 308 142 q 311 153 311 173 z"},"1":{"x_min":0,"x_max":200,"ha":200,"o":"m 171 414 l 171 49 q 171 -1 170 -2 q 168 -4 152 -4 l 113 -4 q 98 -4 96 -2 q 94 0 94 44 l 94 342 q 94 388 93 389 q 92 390 77 390 l 48 390 q 34 390 32 392 q 30 394 30 409 l 30 448 q 30 463 32 465 q 34 467 36 467 l 166 467 q 168 467 170 465 q 171 464 171 414 z"},"5":{"x_min":0,"x_max":421,"ha":421,"o":"m 46 445 l 46 456 q 46 463 48 465 q 50 467 89 467 l 320 467 q 359 467 361 465 q 363 463 363 462 l 363 405 q 363 400 326 400 l 157 400 q 132 400 126 396 q 120 393 120 378 l 120 319 q 120 299 122 297 q 124 295 133 299 q 164 312 212 312 q 295 312 345 270 q 396 226 396 153 q 396 81 344 37 q 289 -8 196 -8 q 145 -8 105 9 q 65 26 51 42 q 36 57 28 70 q 24 76 26 78 q 29 82 46 87 q 100 106 100 106 q 123 59 192 59 q 248 59 281 88 q 314 118 314 159 q 314 194 289 220 q 263 245 218 245 q 190 245 162 234 q 133 223 119 213 q 105 204 99 197 q 94 192 90 193 q 86 194 77 203 l 46 234 l 43 237 l 43 238 q 43 240 44 342 q 46 443 46 444 z"}}}
